%
M48
M72
T01C0.0236
T02C0.0610
T03C0.0700
T04C0.1260
%
T01
X3600Y6600
X3600Y8600
X3600Y10600
X3600Y12600
X5600Y12600
X5600Y10600
X5600Y8600
X5600Y6600
X9100Y4100
X10600Y4100
X16100Y5100
X18600Y5100
X19100Y7600
X19100Y9600
X19100Y11600
X18600Y14100
X16100Y14100
X10600Y15100
X9100Y15100
T02
X6600Y16600
X2600Y16600
X13100Y16600
X17100Y16600
X17100Y2600
X13100Y2600
X6600Y2600
X2600Y2600
T03
X1596Y1596
X1596Y3604
X3604Y3604
X5596Y3604
X5596Y1596
X3604Y1596
X7604Y1596
X7604Y3604
X12096Y3604
X12096Y1596
X14104Y1596
X16096Y1596
X16096Y3604
X14104Y3604
X18104Y3604
X18104Y1596
X18104Y15596
X18104Y17604
X16096Y17604
X14104Y17604
X14104Y15596
X16096Y15596
X12096Y15596
X12096Y17604
X7604Y17604
X7604Y15596
X5596Y15596
X3604Y15596
X3604Y17604
X5596Y17604
X1596Y17604
X1596Y15596
T04
X1600Y13600
X1600Y5600
X9850Y1600
X9850Y18600
M30
