G75*
%MOIN*%
%OFA0B0*%
%FSLAX24Y24*%
%IPPOS*%
%LPD*%
%AMOC8*
5,1,8,0,0,1.08239X$1,22.5*
%
%ADD10C,0.0000*%
%ADD11C,0.0040*%
%ADD12C,0.0080*%
D10*
X000100Y000100D02*
X000100Y019785D01*
X019785Y019785D01*
X019785Y000100D01*
X000100Y000100D01*
X000970Y005600D02*
X000972Y005650D01*
X000978Y005700D01*
X000988Y005749D01*
X001002Y005797D01*
X001019Y005844D01*
X001040Y005889D01*
X001065Y005933D01*
X001093Y005974D01*
X001125Y006013D01*
X001159Y006050D01*
X001196Y006084D01*
X001236Y006114D01*
X001278Y006141D01*
X001322Y006165D01*
X001368Y006186D01*
X001415Y006202D01*
X001463Y006215D01*
X001513Y006224D01*
X001562Y006229D01*
X001613Y006230D01*
X001663Y006227D01*
X001712Y006220D01*
X001761Y006209D01*
X001809Y006194D01*
X001855Y006176D01*
X001900Y006154D01*
X001943Y006128D01*
X001984Y006099D01*
X002023Y006067D01*
X002059Y006032D01*
X002091Y005994D01*
X002121Y005954D01*
X002148Y005911D01*
X002171Y005867D01*
X002190Y005821D01*
X002206Y005773D01*
X002218Y005724D01*
X002226Y005675D01*
X002230Y005625D01*
X002230Y005575D01*
X002226Y005525D01*
X002218Y005476D01*
X002206Y005427D01*
X002190Y005379D01*
X002171Y005333D01*
X002148Y005289D01*
X002121Y005246D01*
X002091Y005206D01*
X002059Y005168D01*
X002023Y005133D01*
X001984Y005101D01*
X001943Y005072D01*
X001900Y005046D01*
X001855Y005024D01*
X001809Y005006D01*
X001761Y004991D01*
X001712Y004980D01*
X001663Y004973D01*
X001613Y004970D01*
X001562Y004971D01*
X001513Y004976D01*
X001463Y004985D01*
X001415Y004998D01*
X001368Y005014D01*
X001322Y005035D01*
X001278Y005059D01*
X001236Y005086D01*
X001196Y005116D01*
X001159Y005150D01*
X001125Y005187D01*
X001093Y005226D01*
X001065Y005267D01*
X001040Y005311D01*
X001019Y005356D01*
X001002Y005403D01*
X000988Y005451D01*
X000978Y005500D01*
X000972Y005550D01*
X000970Y005600D01*
X000970Y013600D02*
X000972Y013650D01*
X000978Y013700D01*
X000988Y013749D01*
X001002Y013797D01*
X001019Y013844D01*
X001040Y013889D01*
X001065Y013933D01*
X001093Y013974D01*
X001125Y014013D01*
X001159Y014050D01*
X001196Y014084D01*
X001236Y014114D01*
X001278Y014141D01*
X001322Y014165D01*
X001368Y014186D01*
X001415Y014202D01*
X001463Y014215D01*
X001513Y014224D01*
X001562Y014229D01*
X001613Y014230D01*
X001663Y014227D01*
X001712Y014220D01*
X001761Y014209D01*
X001809Y014194D01*
X001855Y014176D01*
X001900Y014154D01*
X001943Y014128D01*
X001984Y014099D01*
X002023Y014067D01*
X002059Y014032D01*
X002091Y013994D01*
X002121Y013954D01*
X002148Y013911D01*
X002171Y013867D01*
X002190Y013821D01*
X002206Y013773D01*
X002218Y013724D01*
X002226Y013675D01*
X002230Y013625D01*
X002230Y013575D01*
X002226Y013525D01*
X002218Y013476D01*
X002206Y013427D01*
X002190Y013379D01*
X002171Y013333D01*
X002148Y013289D01*
X002121Y013246D01*
X002091Y013206D01*
X002059Y013168D01*
X002023Y013133D01*
X001984Y013101D01*
X001943Y013072D01*
X001900Y013046D01*
X001855Y013024D01*
X001809Y013006D01*
X001761Y012991D01*
X001712Y012980D01*
X001663Y012973D01*
X001613Y012970D01*
X001562Y012971D01*
X001513Y012976D01*
X001463Y012985D01*
X001415Y012998D01*
X001368Y013014D01*
X001322Y013035D01*
X001278Y013059D01*
X001236Y013086D01*
X001196Y013116D01*
X001159Y013150D01*
X001125Y013187D01*
X001093Y013226D01*
X001065Y013267D01*
X001040Y013311D01*
X001019Y013356D01*
X001002Y013403D01*
X000988Y013451D01*
X000978Y013500D01*
X000972Y013550D01*
X000970Y013600D01*
X009220Y018600D02*
X009222Y018650D01*
X009228Y018700D01*
X009238Y018749D01*
X009252Y018797D01*
X009269Y018844D01*
X009290Y018889D01*
X009315Y018933D01*
X009343Y018974D01*
X009375Y019013D01*
X009409Y019050D01*
X009446Y019084D01*
X009486Y019114D01*
X009528Y019141D01*
X009572Y019165D01*
X009618Y019186D01*
X009665Y019202D01*
X009713Y019215D01*
X009763Y019224D01*
X009812Y019229D01*
X009863Y019230D01*
X009913Y019227D01*
X009962Y019220D01*
X010011Y019209D01*
X010059Y019194D01*
X010105Y019176D01*
X010150Y019154D01*
X010193Y019128D01*
X010234Y019099D01*
X010273Y019067D01*
X010309Y019032D01*
X010341Y018994D01*
X010371Y018954D01*
X010398Y018911D01*
X010421Y018867D01*
X010440Y018821D01*
X010456Y018773D01*
X010468Y018724D01*
X010476Y018675D01*
X010480Y018625D01*
X010480Y018575D01*
X010476Y018525D01*
X010468Y018476D01*
X010456Y018427D01*
X010440Y018379D01*
X010421Y018333D01*
X010398Y018289D01*
X010371Y018246D01*
X010341Y018206D01*
X010309Y018168D01*
X010273Y018133D01*
X010234Y018101D01*
X010193Y018072D01*
X010150Y018046D01*
X010105Y018024D01*
X010059Y018006D01*
X010011Y017991D01*
X009962Y017980D01*
X009913Y017973D01*
X009863Y017970D01*
X009812Y017971D01*
X009763Y017976D01*
X009713Y017985D01*
X009665Y017998D01*
X009618Y018014D01*
X009572Y018035D01*
X009528Y018059D01*
X009486Y018086D01*
X009446Y018116D01*
X009409Y018150D01*
X009375Y018187D01*
X009343Y018226D01*
X009315Y018267D01*
X009290Y018311D01*
X009269Y018356D01*
X009252Y018403D01*
X009238Y018451D01*
X009228Y018500D01*
X009222Y018550D01*
X009220Y018600D01*
X009220Y001600D02*
X009222Y001650D01*
X009228Y001700D01*
X009238Y001749D01*
X009252Y001797D01*
X009269Y001844D01*
X009290Y001889D01*
X009315Y001933D01*
X009343Y001974D01*
X009375Y002013D01*
X009409Y002050D01*
X009446Y002084D01*
X009486Y002114D01*
X009528Y002141D01*
X009572Y002165D01*
X009618Y002186D01*
X009665Y002202D01*
X009713Y002215D01*
X009763Y002224D01*
X009812Y002229D01*
X009863Y002230D01*
X009913Y002227D01*
X009962Y002220D01*
X010011Y002209D01*
X010059Y002194D01*
X010105Y002176D01*
X010150Y002154D01*
X010193Y002128D01*
X010234Y002099D01*
X010273Y002067D01*
X010309Y002032D01*
X010341Y001994D01*
X010371Y001954D01*
X010398Y001911D01*
X010421Y001867D01*
X010440Y001821D01*
X010456Y001773D01*
X010468Y001724D01*
X010476Y001675D01*
X010480Y001625D01*
X010480Y001575D01*
X010476Y001525D01*
X010468Y001476D01*
X010456Y001427D01*
X010440Y001379D01*
X010421Y001333D01*
X010398Y001289D01*
X010371Y001246D01*
X010341Y001206D01*
X010309Y001168D01*
X010273Y001133D01*
X010234Y001101D01*
X010193Y001072D01*
X010150Y001046D01*
X010105Y001024D01*
X010059Y001006D01*
X010011Y000991D01*
X009962Y000980D01*
X009913Y000973D01*
X009863Y000970D01*
X009812Y000971D01*
X009763Y000976D01*
X009713Y000985D01*
X009665Y000998D01*
X009618Y001014D01*
X009572Y001035D01*
X009528Y001059D01*
X009486Y001086D01*
X009446Y001116D01*
X009409Y001150D01*
X009375Y001187D01*
X009343Y001226D01*
X009315Y001267D01*
X009290Y001311D01*
X009269Y001356D01*
X009252Y001403D01*
X009238Y001451D01*
X009228Y001500D01*
X009222Y001550D01*
X009220Y001600D01*
D11*
X006387Y004370D02*
X006080Y004370D01*
X006387Y004677D01*
X006387Y004754D01*
X006311Y004830D01*
X006157Y004830D01*
X006080Y004754D01*
X005927Y004830D02*
X005620Y004370D01*
X005927Y004370D02*
X005620Y004830D01*
X002387Y004370D02*
X002080Y004370D01*
X001927Y004370D02*
X001620Y004830D01*
X001927Y004830D02*
X001620Y004370D01*
X002080Y004677D02*
X002234Y004830D01*
X002234Y004370D01*
X002120Y007620D02*
X002120Y007927D01*
X002196Y007927D01*
X002503Y007620D01*
X002580Y007620D01*
X002580Y007927D01*
X002503Y008080D02*
X002196Y008080D01*
X002120Y008157D01*
X002120Y008311D01*
X002196Y008387D01*
X002120Y008541D02*
X002120Y008771D01*
X002196Y008848D01*
X002350Y008848D01*
X002427Y008771D01*
X002427Y008541D01*
X002580Y008541D02*
X002120Y008541D01*
X002503Y008387D02*
X002580Y008311D01*
X002580Y008157D01*
X002503Y008080D01*
X002580Y009001D02*
X002120Y009001D01*
X002580Y009308D01*
X002120Y009308D01*
X002120Y009922D02*
X002120Y010152D01*
X002196Y010229D01*
X002350Y010229D01*
X002427Y010152D01*
X002427Y009922D01*
X002580Y009922D02*
X002120Y009922D01*
X002427Y010075D02*
X002580Y010229D01*
X002503Y010382D02*
X002350Y010382D01*
X002273Y010459D01*
X002273Y010613D01*
X002350Y010689D01*
X002427Y010689D01*
X002427Y010382D01*
X002503Y010382D02*
X002580Y010459D01*
X002580Y010613D01*
X002273Y010843D02*
X002580Y010996D01*
X002273Y011150D01*
X002273Y011764D02*
X002120Y011917D01*
X002580Y011917D01*
X002580Y011764D02*
X002580Y012070D01*
X002580Y012224D02*
X002580Y012301D01*
X002503Y012301D01*
X002503Y012224D01*
X002580Y012224D01*
X002503Y012454D02*
X002196Y012454D01*
X002120Y012531D01*
X002120Y012684D01*
X002196Y012761D01*
X002503Y012454D01*
X002580Y012531D01*
X002580Y012684D01*
X002503Y012761D01*
X002196Y012761D01*
X002157Y018370D02*
X002080Y018447D01*
X002157Y018370D02*
X002311Y018370D01*
X002387Y018447D01*
X002387Y018523D01*
X002311Y018600D01*
X002234Y018600D01*
X002311Y018600D02*
X002387Y018677D01*
X002387Y018754D01*
X002311Y018830D01*
X002157Y018830D01*
X002080Y018754D01*
X001927Y018830D02*
X001620Y018370D01*
X001927Y018370D02*
X001620Y018830D01*
X005620Y018830D02*
X005927Y018370D01*
X006080Y018600D02*
X006387Y018600D01*
X006311Y018370D02*
X006311Y018830D01*
X006080Y018600D01*
X005927Y018830D02*
X005620Y018370D01*
X012120Y018370D02*
X012427Y018830D01*
X012580Y018830D02*
X012887Y018830D01*
X012887Y018754D01*
X012580Y018447D01*
X012580Y018370D01*
X012427Y018370D02*
X012120Y018830D01*
X016120Y018830D02*
X016427Y018370D01*
X016580Y018447D02*
X016580Y018523D01*
X016657Y018600D01*
X016811Y018600D01*
X016887Y018523D01*
X016887Y018447D01*
X016811Y018370D01*
X016657Y018370D01*
X016580Y018447D01*
X016657Y018600D02*
X016580Y018677D01*
X016580Y018754D01*
X016657Y018830D01*
X016811Y018830D01*
X016887Y018754D01*
X016887Y018677D01*
X016811Y018600D01*
X016427Y018830D02*
X016120Y018370D01*
X016120Y004830D02*
X016427Y004370D01*
X016580Y004447D02*
X016657Y004370D01*
X016811Y004370D01*
X016887Y004447D01*
X016887Y004523D01*
X016811Y004600D01*
X016580Y004600D01*
X016580Y004447D01*
X016580Y004600D02*
X016734Y004754D01*
X016887Y004830D01*
X016427Y004830D02*
X016120Y004370D01*
X012887Y004447D02*
X012811Y004370D01*
X012657Y004370D01*
X012580Y004447D01*
X012580Y004600D02*
X012734Y004677D01*
X012811Y004677D01*
X012887Y004600D01*
X012887Y004447D01*
X012580Y004600D02*
X012580Y004830D01*
X012887Y004830D01*
X012427Y004830D02*
X012120Y004370D01*
X012427Y004370D02*
X012120Y004830D01*
D12*
X012667Y003860D02*
X013533Y003860D01*
X014360Y003033D02*
X014360Y002167D01*
X013533Y001340D02*
X012667Y001340D01*
X011840Y002167D02*
X011840Y003033D01*
X012431Y002600D02*
X012433Y002651D01*
X012439Y002702D01*
X012449Y002752D01*
X012462Y002802D01*
X012480Y002850D01*
X012500Y002897D01*
X012525Y002942D01*
X012553Y002985D01*
X012584Y003026D01*
X012618Y003064D01*
X012655Y003099D01*
X012694Y003132D01*
X012736Y003162D01*
X012780Y003188D01*
X012826Y003210D01*
X012874Y003230D01*
X012923Y003245D01*
X012973Y003257D01*
X013023Y003265D01*
X013074Y003269D01*
X013126Y003269D01*
X013177Y003265D01*
X013227Y003257D01*
X013277Y003245D01*
X013326Y003230D01*
X013374Y003210D01*
X013420Y003188D01*
X013464Y003162D01*
X013506Y003132D01*
X013545Y003099D01*
X013582Y003064D01*
X013616Y003026D01*
X013647Y002985D01*
X013675Y002942D01*
X013700Y002897D01*
X013720Y002850D01*
X013738Y002802D01*
X013751Y002752D01*
X013761Y002702D01*
X013767Y002651D01*
X013769Y002600D01*
X013767Y002549D01*
X013761Y002498D01*
X013751Y002448D01*
X013738Y002398D01*
X013720Y002350D01*
X013700Y002303D01*
X013675Y002258D01*
X013647Y002215D01*
X013616Y002174D01*
X013582Y002136D01*
X013545Y002101D01*
X013506Y002068D01*
X013464Y002038D01*
X013420Y002012D01*
X013374Y001990D01*
X013326Y001970D01*
X013277Y001955D01*
X013227Y001943D01*
X013177Y001935D01*
X013126Y001931D01*
X013074Y001931D01*
X013023Y001935D01*
X012973Y001943D01*
X012923Y001955D01*
X012874Y001970D01*
X012826Y001990D01*
X012780Y002012D01*
X012736Y002038D01*
X012694Y002068D01*
X012655Y002101D01*
X012618Y002136D01*
X012584Y002174D01*
X012553Y002215D01*
X012525Y002258D01*
X012500Y002303D01*
X012480Y002350D01*
X012462Y002398D01*
X012449Y002448D01*
X012439Y002498D01*
X012433Y002549D01*
X012431Y002600D01*
X015840Y002167D02*
X015840Y003033D01*
X016667Y003860D02*
X017533Y003860D01*
X018360Y003033D02*
X018360Y002167D01*
X017533Y001340D02*
X016667Y001340D01*
X016431Y002600D02*
X016433Y002651D01*
X016439Y002702D01*
X016449Y002752D01*
X016462Y002802D01*
X016480Y002850D01*
X016500Y002897D01*
X016525Y002942D01*
X016553Y002985D01*
X016584Y003026D01*
X016618Y003064D01*
X016655Y003099D01*
X016694Y003132D01*
X016736Y003162D01*
X016780Y003188D01*
X016826Y003210D01*
X016874Y003230D01*
X016923Y003245D01*
X016973Y003257D01*
X017023Y003265D01*
X017074Y003269D01*
X017126Y003269D01*
X017177Y003265D01*
X017227Y003257D01*
X017277Y003245D01*
X017326Y003230D01*
X017374Y003210D01*
X017420Y003188D01*
X017464Y003162D01*
X017506Y003132D01*
X017545Y003099D01*
X017582Y003064D01*
X017616Y003026D01*
X017647Y002985D01*
X017675Y002942D01*
X017700Y002897D01*
X017720Y002850D01*
X017738Y002802D01*
X017751Y002752D01*
X017761Y002702D01*
X017767Y002651D01*
X017769Y002600D01*
X017767Y002549D01*
X017761Y002498D01*
X017751Y002448D01*
X017738Y002398D01*
X017720Y002350D01*
X017700Y002303D01*
X017675Y002258D01*
X017647Y002215D01*
X017616Y002174D01*
X017582Y002136D01*
X017545Y002101D01*
X017506Y002068D01*
X017464Y002038D01*
X017420Y002012D01*
X017374Y001990D01*
X017326Y001970D01*
X017277Y001955D01*
X017227Y001943D01*
X017177Y001935D01*
X017126Y001931D01*
X017074Y001931D01*
X017023Y001935D01*
X016973Y001943D01*
X016923Y001955D01*
X016874Y001970D01*
X016826Y001990D01*
X016780Y002012D01*
X016736Y002038D01*
X016694Y002068D01*
X016655Y002101D01*
X016618Y002136D01*
X016584Y002174D01*
X016553Y002215D01*
X016525Y002258D01*
X016500Y002303D01*
X016480Y002350D01*
X016462Y002398D01*
X016449Y002448D01*
X016439Y002498D01*
X016433Y002549D01*
X016431Y002600D01*
X007860Y003033D02*
X007860Y002167D01*
X007033Y001340D02*
X006167Y001340D01*
X005340Y002167D02*
X005340Y003033D01*
X006167Y003860D02*
X007033Y003860D01*
X005931Y002600D02*
X005933Y002651D01*
X005939Y002702D01*
X005949Y002752D01*
X005962Y002802D01*
X005980Y002850D01*
X006000Y002897D01*
X006025Y002942D01*
X006053Y002985D01*
X006084Y003026D01*
X006118Y003064D01*
X006155Y003099D01*
X006194Y003132D01*
X006236Y003162D01*
X006280Y003188D01*
X006326Y003210D01*
X006374Y003230D01*
X006423Y003245D01*
X006473Y003257D01*
X006523Y003265D01*
X006574Y003269D01*
X006626Y003269D01*
X006677Y003265D01*
X006727Y003257D01*
X006777Y003245D01*
X006826Y003230D01*
X006874Y003210D01*
X006920Y003188D01*
X006964Y003162D01*
X007006Y003132D01*
X007045Y003099D01*
X007082Y003064D01*
X007116Y003026D01*
X007147Y002985D01*
X007175Y002942D01*
X007200Y002897D01*
X007220Y002850D01*
X007238Y002802D01*
X007251Y002752D01*
X007261Y002702D01*
X007267Y002651D01*
X007269Y002600D01*
X007267Y002549D01*
X007261Y002498D01*
X007251Y002448D01*
X007238Y002398D01*
X007220Y002350D01*
X007200Y002303D01*
X007175Y002258D01*
X007147Y002215D01*
X007116Y002174D01*
X007082Y002136D01*
X007045Y002101D01*
X007006Y002068D01*
X006964Y002038D01*
X006920Y002012D01*
X006874Y001990D01*
X006826Y001970D01*
X006777Y001955D01*
X006727Y001943D01*
X006677Y001935D01*
X006626Y001931D01*
X006574Y001931D01*
X006523Y001935D01*
X006473Y001943D01*
X006423Y001955D01*
X006374Y001970D01*
X006326Y001990D01*
X006280Y002012D01*
X006236Y002038D01*
X006194Y002068D01*
X006155Y002101D01*
X006118Y002136D01*
X006084Y002174D01*
X006053Y002215D01*
X006025Y002258D01*
X006000Y002303D01*
X005980Y002350D01*
X005962Y002398D01*
X005949Y002448D01*
X005939Y002498D01*
X005933Y002549D01*
X005931Y002600D01*
X003860Y003033D02*
X003860Y002167D01*
X003033Y001340D02*
X002167Y001340D01*
X001340Y002167D02*
X001340Y003033D01*
X002167Y003860D02*
X003033Y003860D01*
X001931Y002600D02*
X001933Y002651D01*
X001939Y002702D01*
X001949Y002752D01*
X001962Y002802D01*
X001980Y002850D01*
X002000Y002897D01*
X002025Y002942D01*
X002053Y002985D01*
X002084Y003026D01*
X002118Y003064D01*
X002155Y003099D01*
X002194Y003132D01*
X002236Y003162D01*
X002280Y003188D01*
X002326Y003210D01*
X002374Y003230D01*
X002423Y003245D01*
X002473Y003257D01*
X002523Y003265D01*
X002574Y003269D01*
X002626Y003269D01*
X002677Y003265D01*
X002727Y003257D01*
X002777Y003245D01*
X002826Y003230D01*
X002874Y003210D01*
X002920Y003188D01*
X002964Y003162D01*
X003006Y003132D01*
X003045Y003099D01*
X003082Y003064D01*
X003116Y003026D01*
X003147Y002985D01*
X003175Y002942D01*
X003200Y002897D01*
X003220Y002850D01*
X003238Y002802D01*
X003251Y002752D01*
X003261Y002702D01*
X003267Y002651D01*
X003269Y002600D01*
X003267Y002549D01*
X003261Y002498D01*
X003251Y002448D01*
X003238Y002398D01*
X003220Y002350D01*
X003200Y002303D01*
X003175Y002258D01*
X003147Y002215D01*
X003116Y002174D01*
X003082Y002136D01*
X003045Y002101D01*
X003006Y002068D01*
X002964Y002038D01*
X002920Y002012D01*
X002874Y001990D01*
X002826Y001970D01*
X002777Y001955D01*
X002727Y001943D01*
X002677Y001935D01*
X002626Y001931D01*
X002574Y001931D01*
X002523Y001935D01*
X002473Y001943D01*
X002423Y001955D01*
X002374Y001970D01*
X002326Y001990D01*
X002280Y002012D01*
X002236Y002038D01*
X002194Y002068D01*
X002155Y002101D01*
X002118Y002136D01*
X002084Y002174D01*
X002053Y002215D01*
X002025Y002258D01*
X002000Y002303D01*
X001980Y002350D01*
X001962Y002398D01*
X001949Y002448D01*
X001939Y002498D01*
X001933Y002549D01*
X001931Y002600D01*
X002167Y015340D02*
X003033Y015340D01*
X003860Y016167D02*
X003860Y017033D01*
X003033Y017860D02*
X002167Y017860D01*
X001340Y017033D02*
X001340Y016167D01*
X001931Y016600D02*
X001933Y016651D01*
X001939Y016702D01*
X001949Y016752D01*
X001962Y016802D01*
X001980Y016850D01*
X002000Y016897D01*
X002025Y016942D01*
X002053Y016985D01*
X002084Y017026D01*
X002118Y017064D01*
X002155Y017099D01*
X002194Y017132D01*
X002236Y017162D01*
X002280Y017188D01*
X002326Y017210D01*
X002374Y017230D01*
X002423Y017245D01*
X002473Y017257D01*
X002523Y017265D01*
X002574Y017269D01*
X002626Y017269D01*
X002677Y017265D01*
X002727Y017257D01*
X002777Y017245D01*
X002826Y017230D01*
X002874Y017210D01*
X002920Y017188D01*
X002964Y017162D01*
X003006Y017132D01*
X003045Y017099D01*
X003082Y017064D01*
X003116Y017026D01*
X003147Y016985D01*
X003175Y016942D01*
X003200Y016897D01*
X003220Y016850D01*
X003238Y016802D01*
X003251Y016752D01*
X003261Y016702D01*
X003267Y016651D01*
X003269Y016600D01*
X003267Y016549D01*
X003261Y016498D01*
X003251Y016448D01*
X003238Y016398D01*
X003220Y016350D01*
X003200Y016303D01*
X003175Y016258D01*
X003147Y016215D01*
X003116Y016174D01*
X003082Y016136D01*
X003045Y016101D01*
X003006Y016068D01*
X002964Y016038D01*
X002920Y016012D01*
X002874Y015990D01*
X002826Y015970D01*
X002777Y015955D01*
X002727Y015943D01*
X002677Y015935D01*
X002626Y015931D01*
X002574Y015931D01*
X002523Y015935D01*
X002473Y015943D01*
X002423Y015955D01*
X002374Y015970D01*
X002326Y015990D01*
X002280Y016012D01*
X002236Y016038D01*
X002194Y016068D01*
X002155Y016101D01*
X002118Y016136D01*
X002084Y016174D01*
X002053Y016215D01*
X002025Y016258D01*
X002000Y016303D01*
X001980Y016350D01*
X001962Y016398D01*
X001949Y016448D01*
X001939Y016498D01*
X001933Y016549D01*
X001931Y016600D01*
X005340Y016167D02*
X005340Y017033D01*
X006167Y017860D02*
X007033Y017860D01*
X007860Y017033D02*
X007860Y016167D01*
X007033Y015340D02*
X006167Y015340D01*
X005931Y016600D02*
X005933Y016651D01*
X005939Y016702D01*
X005949Y016752D01*
X005962Y016802D01*
X005980Y016850D01*
X006000Y016897D01*
X006025Y016942D01*
X006053Y016985D01*
X006084Y017026D01*
X006118Y017064D01*
X006155Y017099D01*
X006194Y017132D01*
X006236Y017162D01*
X006280Y017188D01*
X006326Y017210D01*
X006374Y017230D01*
X006423Y017245D01*
X006473Y017257D01*
X006523Y017265D01*
X006574Y017269D01*
X006626Y017269D01*
X006677Y017265D01*
X006727Y017257D01*
X006777Y017245D01*
X006826Y017230D01*
X006874Y017210D01*
X006920Y017188D01*
X006964Y017162D01*
X007006Y017132D01*
X007045Y017099D01*
X007082Y017064D01*
X007116Y017026D01*
X007147Y016985D01*
X007175Y016942D01*
X007200Y016897D01*
X007220Y016850D01*
X007238Y016802D01*
X007251Y016752D01*
X007261Y016702D01*
X007267Y016651D01*
X007269Y016600D01*
X007267Y016549D01*
X007261Y016498D01*
X007251Y016448D01*
X007238Y016398D01*
X007220Y016350D01*
X007200Y016303D01*
X007175Y016258D01*
X007147Y016215D01*
X007116Y016174D01*
X007082Y016136D01*
X007045Y016101D01*
X007006Y016068D01*
X006964Y016038D01*
X006920Y016012D01*
X006874Y015990D01*
X006826Y015970D01*
X006777Y015955D01*
X006727Y015943D01*
X006677Y015935D01*
X006626Y015931D01*
X006574Y015931D01*
X006523Y015935D01*
X006473Y015943D01*
X006423Y015955D01*
X006374Y015970D01*
X006326Y015990D01*
X006280Y016012D01*
X006236Y016038D01*
X006194Y016068D01*
X006155Y016101D01*
X006118Y016136D01*
X006084Y016174D01*
X006053Y016215D01*
X006025Y016258D01*
X006000Y016303D01*
X005980Y016350D01*
X005962Y016398D01*
X005949Y016448D01*
X005939Y016498D01*
X005933Y016549D01*
X005931Y016600D01*
X011840Y016167D02*
X011840Y017033D01*
X012667Y017860D02*
X013533Y017860D01*
X014360Y017033D02*
X014360Y016167D01*
X013533Y015340D02*
X012667Y015340D01*
X012431Y016600D02*
X012433Y016651D01*
X012439Y016702D01*
X012449Y016752D01*
X012462Y016802D01*
X012480Y016850D01*
X012500Y016897D01*
X012525Y016942D01*
X012553Y016985D01*
X012584Y017026D01*
X012618Y017064D01*
X012655Y017099D01*
X012694Y017132D01*
X012736Y017162D01*
X012780Y017188D01*
X012826Y017210D01*
X012874Y017230D01*
X012923Y017245D01*
X012973Y017257D01*
X013023Y017265D01*
X013074Y017269D01*
X013126Y017269D01*
X013177Y017265D01*
X013227Y017257D01*
X013277Y017245D01*
X013326Y017230D01*
X013374Y017210D01*
X013420Y017188D01*
X013464Y017162D01*
X013506Y017132D01*
X013545Y017099D01*
X013582Y017064D01*
X013616Y017026D01*
X013647Y016985D01*
X013675Y016942D01*
X013700Y016897D01*
X013720Y016850D01*
X013738Y016802D01*
X013751Y016752D01*
X013761Y016702D01*
X013767Y016651D01*
X013769Y016600D01*
X013767Y016549D01*
X013761Y016498D01*
X013751Y016448D01*
X013738Y016398D01*
X013720Y016350D01*
X013700Y016303D01*
X013675Y016258D01*
X013647Y016215D01*
X013616Y016174D01*
X013582Y016136D01*
X013545Y016101D01*
X013506Y016068D01*
X013464Y016038D01*
X013420Y016012D01*
X013374Y015990D01*
X013326Y015970D01*
X013277Y015955D01*
X013227Y015943D01*
X013177Y015935D01*
X013126Y015931D01*
X013074Y015931D01*
X013023Y015935D01*
X012973Y015943D01*
X012923Y015955D01*
X012874Y015970D01*
X012826Y015990D01*
X012780Y016012D01*
X012736Y016038D01*
X012694Y016068D01*
X012655Y016101D01*
X012618Y016136D01*
X012584Y016174D01*
X012553Y016215D01*
X012525Y016258D01*
X012500Y016303D01*
X012480Y016350D01*
X012462Y016398D01*
X012449Y016448D01*
X012439Y016498D01*
X012433Y016549D01*
X012431Y016600D01*
X015840Y016167D02*
X015840Y017033D01*
X016667Y017860D02*
X017533Y017860D01*
X018360Y017033D02*
X018360Y016167D01*
X017533Y015340D02*
X016667Y015340D01*
X016431Y016600D02*
X016433Y016651D01*
X016439Y016702D01*
X016449Y016752D01*
X016462Y016802D01*
X016480Y016850D01*
X016500Y016897D01*
X016525Y016942D01*
X016553Y016985D01*
X016584Y017026D01*
X016618Y017064D01*
X016655Y017099D01*
X016694Y017132D01*
X016736Y017162D01*
X016780Y017188D01*
X016826Y017210D01*
X016874Y017230D01*
X016923Y017245D01*
X016973Y017257D01*
X017023Y017265D01*
X017074Y017269D01*
X017126Y017269D01*
X017177Y017265D01*
X017227Y017257D01*
X017277Y017245D01*
X017326Y017230D01*
X017374Y017210D01*
X017420Y017188D01*
X017464Y017162D01*
X017506Y017132D01*
X017545Y017099D01*
X017582Y017064D01*
X017616Y017026D01*
X017647Y016985D01*
X017675Y016942D01*
X017700Y016897D01*
X017720Y016850D01*
X017738Y016802D01*
X017751Y016752D01*
X017761Y016702D01*
X017767Y016651D01*
X017769Y016600D01*
X017767Y016549D01*
X017761Y016498D01*
X017751Y016448D01*
X017738Y016398D01*
X017720Y016350D01*
X017700Y016303D01*
X017675Y016258D01*
X017647Y016215D01*
X017616Y016174D01*
X017582Y016136D01*
X017545Y016101D01*
X017506Y016068D01*
X017464Y016038D01*
X017420Y016012D01*
X017374Y015990D01*
X017326Y015970D01*
X017277Y015955D01*
X017227Y015943D01*
X017177Y015935D01*
X017126Y015931D01*
X017074Y015931D01*
X017023Y015935D01*
X016973Y015943D01*
X016923Y015955D01*
X016874Y015970D01*
X016826Y015990D01*
X016780Y016012D01*
X016736Y016038D01*
X016694Y016068D01*
X016655Y016101D01*
X016618Y016136D01*
X016584Y016174D01*
X016553Y016215D01*
X016525Y016258D01*
X016500Y016303D01*
X016480Y016350D01*
X016462Y016398D01*
X016449Y016448D01*
X016439Y016498D01*
X016433Y016549D01*
X016431Y016600D01*
M02*
